<?plantuml 1.2026.2beta3?><svg xmlns="http://www.w3.org/2000/svg" xmlns:xlink="http://www.w3.org/1999/xlink" contentStyleType="text/css" data-diagram-type="CLASS" height="1254px" preserveAspectRatio="none" style="width:1266px;height:1254px;background:#FFFFFF;" version="1.1" viewBox="0 0 1266 1254" width="1266px" zoomAndPan="magnify"><defs/><g><!--cluster Domain Layer--><g class="cluster" data-qualified-name="Domain Layer" data-source-line="5" id="ent0002"><path d="M594.5,211.78 L704.3076,211.78 A3.75,3.75 0 0 1 706.8076,214.28 L713.8076,234.0769 L1256.5,234.0769 A2.5,2.5 0 0 1 1259,236.5769 L1259,1245.48 A2.5,2.5 0 0 1 1256.5,1247.98 L594.5,1247.98 A2.5,2.5 0 0 1 592,1245.48 L592,214.28 A2.5,2.5 0 0 1 594.5,211.78" fill="none" style="stroke:#000000;stroke-width:1.5;"/><line style="stroke:#000000;stroke-width:1.5;" x1="592" x2="713.8076" y1="234.0769" y2="234.0769"/><text fill="#000000" font-family="sans-serif" font-size="14" font-weight="bold" lengthAdjust="spacing" textLength="108.8076" x="596" y="226.7751">Domain Layer</text></g><!--cluster Analytics Layer--><g class="cluster" data-qualified-name="Analytics Layer" data-source-line="86" id="ent0012"><path d="M8.5,6 L130.5645,6 A3.75,3.75 0 0 1 133.0645,8.5 L140.0645,28.2969 L565.5,28.2969 A2.5,2.5 0 0 1 568,30.7969 L568,430.5 A2.5,2.5 0 0 1 565.5,433 L8.5,433 A2.5,2.5 0 0 1 6,430.5 L6,8.5 A2.5,2.5 0 0 1 8.5,6" fill="none" style="stroke:#000000;stroke-width:1.5;"/><line style="stroke:#000000;stroke-width:1.5;" x1="6" x2="140.0645" y1="28.2969" y2="28.2969"/><text fill="#000000" font-family="sans-serif" font-size="14" font-weight="bold" lengthAdjust="spacing" textLength="121.0645" x="10" y="20.9951">Analytics Layer</text></g><!--class Fish--><g class="entity" data-qualified-name="Domain Layer.Fish" data-source-line="7" id="ent0003"><rect fill="#F1F1F1" height="96.8906" rx="2.5" ry="2.5" style="stroke:#181818;stroke-width:0.5;" width="236.2734" x="752.86" y="1135.09"/><ellipse cx="852.692" cy="1151.09" fill="#ADD1B2" rx="11" ry="11" style="stroke:#181818;stroke-width:1;"/><path d="M855.6608,1156.7306 Q855.0827,1157.0275 854.442,1157.1681 Q853.8014,1157.3244 853.0983,1157.3244 Q850.5983,1157.3244 849.2702,1155.6838 Q847.9577,1154.0275 847.9577,1150.9025 Q847.9577,1147.7775 849.2702,1146.1213 Q850.5983,1144.465 853.0983,1144.465 Q853.8014,1144.465 854.442,1144.6213 Q855.0983,1144.7775 855.6608,1145.0744 L855.6608,1147.7931 Q855.0358,1147.215 854.442,1146.9494 Q853.8483,1146.6681 853.2233,1146.6681 Q851.8795,1146.6681 851.192,1147.7463 Q850.5045,1148.8088 850.5045,1150.9025 Q850.5045,1152.9963 851.192,1154.0744 Q851.8795,1155.1369 853.2233,1155.1369 Q853.8483,1155.1369 854.442,1154.8713 Q855.0358,1154.59 855.6608,1154.0119 L855.6608,1156.7306 Z " fill="#000000"/><text fill="#000000" font-family="sans-serif" font-size="14" lengthAdjust="spacing" textLength="28.1094" x="873.192" y="1155.9367">Fish</text><line style="stroke:#181818;stroke-width:0.5;" x1="753.86" x2="988.1334" y1="1167.09" y2="1167.09"/><g data-visibility-modifier="PRIVATE_FIELD"><rect fill="none" height="6" style="stroke:#C82930;stroke-width:1;" width="6" x="760.86" y="1177.7384"/></g><text fill="#000000" font-family="sans-serif" font-size="14" lengthAdjust="spacing" textLength="71.8594" x="772.86" y="1184.0851">name : str</text><g data-visibility-modifier="PRIVATE_FIELD"><rect fill="none" height="6" style="stroke:#C82930;stroke-width:1;" width="6" x="760.86" y="1194.0353"/></g><text fill="#000000" font-family="sans-serif" font-size="14" lengthAdjust="spacing" textLength="168.7383" x="772.86" y="1200.382">base_cost_per_kg : float</text><g data-visibility-modifier="PRIVATE_FIELD"><rect fill="none" height="6" style="stroke:#C82930;stroke-width:1;" width="6" x="760.86" y="1210.3322"/></g><text fill="#000000" font-family="sans-serif" font-size="14" lengthAdjust="spacing" textLength="210.2734" x="772.86" y="1216.6789">supplier_price_variance : float</text><line style="stroke:#181818;stroke-width:0.5;" x1="753.86" x2="988.1334" y1="1223.9806" y2="1223.9806"/></g><!--class Supplier--><g class="entity" data-qualified-name="Domain Layer.Supplier" data-source-line="13" id="ent0004"><rect fill="#F1F1F1" height="194.6719" rx="2.5" ry="2.5" style="stroke:#181818;stroke-width:0.5;" width="267.459" x="975.27" y="501.45"/><ellipse cx="1075.9087" cy="517.45" fill="#ADD1B2" rx="11" ry="11" style="stroke:#181818;stroke-width:1;"/><path d="M1078.8774,523.0906 Q1078.2993,523.3875 1077.6587,523.5281 Q1077.018,523.6844 1076.3149,523.6844 Q1073.8149,523.6844 1072.4868,522.0438 Q1071.1743,520.3875 1071.1743,517.2625 Q1071.1743,514.1375 1072.4868,512.4813 Q1073.8149,510.825 1076.3149,510.825 Q1077.018,510.825 1077.6587,510.9813 Q1078.3149,511.1375 1078.8774,511.4344 L1078.8774,514.1531 Q1078.2524,513.575 1077.6587,513.3094 Q1077.0649,513.0281 1076.4399,513.0281 Q1075.0962,513.0281 1074.4087,514.1063 Q1073.7212,515.1688 1073.7212,517.2625 Q1073.7212,519.3563 1074.4087,520.4344 Q1075.0962,521.4969 1076.4399,521.4969 Q1077.0649,521.4969 1077.6587,521.2313 Q1078.2524,520.95 1078.8774,520.3719 L1078.8774,523.0906 Z " fill="#000000"/><text fill="#000000" font-family="sans-serif" font-size="14" lengthAdjust="spacing" textLength="57.6816" x="1096.4087" y="522.2967">Supplier</text><line style="stroke:#181818;stroke-width:0.5;" x1="976.27" x2="1241.729" y1="533.45" y2="533.45"/><g data-visibility-modifier="PRIVATE_FIELD"><rect fill="none" height="6" style="stroke:#C82930;stroke-width:1;" width="6" x="983.27" y="544.0984"/></g><text fill="#000000" font-family="sans-serif" font-size="14" lengthAdjust="spacing" textLength="71.8594" x="995.27" y="550.4451">name : str</text><g data-visibility-modifier="PRIVATE_FIELD"><rect fill="none" height="6" style="stroke:#C82930;stroke-width:1;" width="6" x="983.27" y="560.3953"/></g><text fill="#000000" font-family="sans-serif" font-size="14" lengthAdjust="spacing" textLength="241.459" x="995.27" y="566.742">fish_price_list : Dict&lt;String, float&gt;</text><g data-visibility-modifier="PRIVATE_FIELD"><rect fill="none" height="6" style="stroke:#C82930;stroke-width:1;" width="6" x="983.27" y="576.6922"/></g><text fill="#000000" font-family="sans-serif" font-size="14" lengthAdjust="spacing" textLength="147.1641" x="995.27" y="583.0389">price_volatility : float</text><g data-visibility-modifier="PRIVATE_FIELD"><rect fill="none" height="6" style="stroke:#C82930;stroke-width:1;" width="6" x="983.27" y="592.9891"/></g><text fill="#000000" font-family="sans-serif" font-size="14" lengthAdjust="spacing" textLength="110.127" x="995.27" y="599.3357">reliability : float</text><g data-visibility-modifier="PRIVATE_FIELD"><rect fill="none" height="6" style="stroke:#C82930;stroke-width:1;" width="6" x="983.27" y="609.2859"/></g><text fill="#000000" font-family="sans-serif" font-size="14" lengthAdjust="spacing" textLength="187.6807" x="995.27" y="615.6326">average_delay_days : float</text><g data-visibility-modifier="PRIVATE_FIELD"><rect fill="none" height="6" style="stroke:#C82930;stroke-width:1;" width="6" x="983.27" y="625.5828"/></g><text fill="#000000" font-family="sans-serif" font-size="14" lengthAdjust="spacing" textLength="140.9775" x="995.27" y="631.9295">quality_factor : float</text><line style="stroke:#181818;stroke-width:0.5;" x1="976.27" x2="1241.729" y1="639.2313" y2="639.2313"/><g data-visibility-modifier="PUBLIC_METHOD"><ellipse cx="986.27" cy="652.8797" fill="#84BE84" rx="3" ry="3" style="stroke:#038048;stroke-width:1;"/></g><text fill="#000000" font-family="sans-serif" font-size="14" lengthAdjust="spacing" textLength="183.0869" x="995.27" y="656.2264">get_price(fish: Fish) : float</text><g data-visibility-modifier="PUBLIC_METHOD"><ellipse cx="986.27" cy="669.1766" fill="#84BE84" rx="3" ry="3" style="stroke:#038048;stroke-width:1;"/></g><text fill="#000000" font-family="sans-serif" font-size="14" lengthAdjust="spacing" textLength="190.1211" x="995.27" y="672.5232">delivery_successful() : bool</text><g data-visibility-modifier="PUBLIC_METHOD"><ellipse cx="986.27" cy="685.4734" fill="#84BE84" rx="3" ry="3" style="stroke:#038048;stroke-width:1;"/></g><text fill="#000000" font-family="sans-serif" font-size="14" lengthAdjust="spacing" textLength="144.2656" x="995.27" y="688.8201">delivery_delay() : int</text></g><!--class InventoryItem--><g class="entity" data-qualified-name="Domain Layer.InventoryItem" data-source-line="25" id="ent0005"><rect fill="#F1F1F1" height="129.4844" rx="2.5" ry="2.5" style="stroke:#181818;stroke-width:0.5;" width="281.9238" x="865.04" y="945.61"/><ellipse cx="952.3828" cy="961.61" fill="#ADD1B2" rx="11" ry="11" style="stroke:#181818;stroke-width:1;"/><path d="M955.3515,967.2506 Q954.7734,967.5475 954.1328,967.6881 Q953.4921,967.8444 952.789,967.8444 Q950.289,967.8444 948.9609,966.2038 Q947.6484,964.5475 947.6484,961.4225 Q947.6484,958.2975 948.9609,956.6413 Q950.289,954.985 952.789,954.985 Q953.4921,954.985 954.1328,955.1413 Q954.789,955.2975 955.3515,955.5944 L955.3515,958.3131 Q954.7265,957.735 954.1328,957.4694 Q953.539,957.1881 952.914,957.1881 Q951.5703,957.1881 950.8828,958.2663 Q950.1953,959.3288 950.1953,961.4225 Q950.1953,963.5163 950.8828,964.5944 Q951.5703,965.6569 952.914,965.6569 Q953.539,965.6569 954.1328,965.3913 Q954.7265,965.11 955.3515,964.5319 L955.3515,967.2506 Z " fill="#000000"/><text fill="#000000" font-family="sans-serif" font-size="14" lengthAdjust="spacing" textLength="98.7383" x="972.8828" y="966.4567">InventoryItem</text><line style="stroke:#181818;stroke-width:0.5;" x1="866.04" x2="1145.9638" y1="977.61" y2="977.61"/><g data-visibility-modifier="PRIVATE_FIELD"><rect fill="none" height="6" style="stroke:#C82930;stroke-width:1;" width="6" x="873.04" y="988.2584"/></g><text fill="#000000" font-family="sans-serif" font-size="14" lengthAdjust="spacing" textLength="66.7119" x="885.04" y="994.6051">fish : Fish</text><g data-visibility-modifier="PRIVATE_FIELD"><rect fill="none" height="6" style="stroke:#C82930;stroke-width:1;" width="6" x="873.04" y="1004.5553"/></g><text fill="#000000" font-family="sans-serif" font-size="14" lengthAdjust="spacing" textLength="123.0811" x="885.04" y="1010.902">amount_kg : float</text><g data-visibility-modifier="PRIVATE_FIELD"><rect fill="none" height="6" style="stroke:#C82930;stroke-width:1;" width="6" x="873.04" y="1020.8522"/></g><text fill="#000000" font-family="sans-serif" font-size="14" lengthAdjust="spacing" textLength="154.5811" x="885.04" y="1027.1989">expiration_date : date</text><line style="stroke:#181818;stroke-width:0.5;" x1="866.04" x2="1145.9638" y1="1034.5006" y2="1034.5006"/><g data-visibility-modifier="PUBLIC_METHOD"><ellipse cx="876.04" cy="1048.1491" fill="#84BE84" rx="3" ry="3" style="stroke:#038048;stroke-width:1;"/></g><text fill="#000000" font-family="sans-serif" font-size="14" lengthAdjust="spacing" textLength="255.9238" x="885.04" y="1051.4957">is_expired(current_date: date) : bool</text><g data-visibility-modifier="PUBLIC_METHOD"><ellipse cx="876.04" cy="1064.4459" fill="#84BE84" rx="3" ry="3" style="stroke:#038048;stroke-width:1;"/></g><text fill="#000000" font-family="sans-serif" font-size="14" lengthAdjust="spacing" textLength="241.3975" x="885.04" y="1067.7926">reduce_stock(amount: float) : void</text></g><!--class Delivery--><g class="entity" data-qualified-name="Domain Layer.Delivery" data-source-line="33" id="ent0006"><rect fill="#F1F1F1" height="129.4844" rx="2.5" ry="2.5" style="stroke:#181818;stroke-width:0.5;" width="284.6855" x="937.66" y="756.12"/><ellipse cx="1046.6966" cy="772.12" fill="#ADD1B2" rx="11" ry="11" style="stroke:#181818;stroke-width:1;"/><path d="M1049.6654,777.7606 Q1049.0872,778.0575 1048.4466,778.1981 Q1047.806,778.3544 1047.1029,778.3544 Q1044.6029,778.3544 1043.2747,776.7138 Q1041.9622,775.0575 1041.9622,771.9325 Q1041.9622,768.8075 1043.2747,767.1513 Q1044.6029,765.495 1047.1029,765.495 Q1047.806,765.495 1048.4466,765.6513 Q1049.1029,765.8075 1049.6654,766.1044 L1049.6654,768.8231 Q1049.0404,768.245 1048.4466,767.9794 Q1047.8529,767.6981 1047.2279,767.6981 Q1045.8841,767.6981 1045.1966,768.7763 Q1044.5091,769.8388 1044.5091,771.9325 Q1044.5091,774.0263 1045.1966,775.1044 Q1045.8841,776.1669 1047.2279,776.1669 Q1047.8529,776.1669 1048.4466,775.9013 Q1049.0404,775.62 1049.6654,775.0419 L1049.6654,777.7606 Z " fill="#000000"/><text fill="#000000" font-family="sans-serif" font-size="14" lengthAdjust="spacing" textLength="58.1123" x="1067.1966" y="776.9667">Delivery</text><line style="stroke:#181818;stroke-width:0.5;" x1="938.66" x2="1221.3455" y1="788.12" y2="788.12"/><g data-visibility-modifier="PRIVATE_FIELD"><rect fill="none" height="6" style="stroke:#C82930;stroke-width:1;" width="6" x="945.66" y="798.7684"/></g><text fill="#000000" font-family="sans-serif" font-size="14" lengthAdjust="spacing" textLength="127.3877" x="957.66" y="805.1151">supplier : Supplier</text><g data-visibility-modifier="PRIVATE_FIELD"><rect fill="none" height="6" style="stroke:#C82930;stroke-width:1;" width="6" x="945.66" y="815.0653"/></g><text fill="#000000" font-family="sans-serif" font-size="14" lengthAdjust="spacing" textLength="139.9727" x="957.66" y="821.412">delivery_date : date</text><g data-visibility-modifier="PRIVATE_FIELD"><rect fill="none" height="6" style="stroke:#C82930;stroke-width:1;" width="6" x="945.66" y="831.3622"/></g><text fill="#000000" font-family="sans-serif" font-size="14" lengthAdjust="spacing" textLength="199.2129" x="957.66" y="837.7089">items : List&lt;InventoryItem&gt;</text><line style="stroke:#181818;stroke-width:0.5;" x1="938.66" x2="1221.3455" y1="845.0106" y2="845.0106"/><g data-visibility-modifier="PUBLIC_METHOD"><ellipse cx="948.66" cy="858.6591" fill="#84BE84" rx="3" ry="3" style="stroke:#038048;stroke-width:1;"/></g><text fill="#000000" font-family="sans-serif" font-size="14" lengthAdjust="spacing" textLength="173.5713" x="957.66" y="862.0057">execute_delivery() : void</text><g data-visibility-modifier="PUBLIC_METHOD"><ellipse cx="948.66" cy="874.9559" fill="#84BE84" rx="3" ry="3" style="stroke:#038048;stroke-width:1;"/></g><text fill="#000000" font-family="sans-serif" font-size="14" lengthAdjust="spacing" textLength="258.6855" x="957.66" y="878.3026">add_item(item: InventoryItem) : void</text></g><!--class MenuItem--><g class="entity" data-qualified-name="Domain Layer.MenuItem" data-source-line="41" id="ent0007"><rect fill="#F1F1F1" height="113.1875" rx="2.5" ry="2.5" style="stroke:#181818;stroke-width:0.5;" width="186.3232" x="643.84" y="953.75"/><ellipse cx="697.5978" cy="969.75" fill="#ADD1B2" rx="11" ry="11" style="stroke:#181818;stroke-width:1;"/><path d="M700.5666,975.3906 Q699.9884,975.6875 699.3478,975.8281 Q698.7072,975.9844 698.0041,975.9844 Q695.5041,975.9844 694.1759,974.3438 Q692.8634,972.6875 692.8634,969.5625 Q692.8634,966.4375 694.1759,964.7813 Q695.5041,963.125 698.0041,963.125 Q698.7072,963.125 699.3478,963.2813 Q700.0041,963.4375 700.5666,963.7344 L700.5666,966.4531 Q699.9416,965.875 699.3478,965.6094 Q698.7541,965.3281 698.1291,965.3281 Q696.7853,965.3281 696.0978,966.4063 Q695.4103,967.4688 695.4103,969.5625 Q695.4103,971.6563 696.0978,972.7344 Q696.7853,973.7969 698.1291,973.7969 Q698.7541,973.7969 699.3478,973.5313 Q699.9416,973.25 700.5666,972.6719 L700.5666,975.3906 Z " fill="#000000"/><text fill="#000000" font-family="sans-serif" font-size="14" lengthAdjust="spacing" textLength="70.3076" x="718.0978" y="974.5967">MenuItem</text><line style="stroke:#181818;stroke-width:0.5;" x1="644.84" x2="829.1632" y1="985.75" y2="985.75"/><g data-visibility-modifier="PRIVATE_FIELD"><rect fill="none" height="6" style="stroke:#C82930;stroke-width:1;" width="6" x="651.84" y="996.3984"/></g><text fill="#000000" font-family="sans-serif" font-size="14" lengthAdjust="spacing" textLength="71.8594" x="663.84" y="1002.7451">name : str</text><g data-visibility-modifier="PRIVATE_FIELD"><rect fill="none" height="6" style="stroke:#C82930;stroke-width:1;" width="6" x="651.84" y="1012.6953"/></g><text fill="#000000" font-family="sans-serif" font-size="14" lengthAdjust="spacing" textLength="66.7119" x="663.84" y="1019.042">fish : Fish</text><g data-visibility-modifier="PRIVATE_FIELD"><rect fill="none" height="6" style="stroke:#C82930;stroke-width:1;" width="6" x="651.84" y="1028.9922"/></g><text fill="#000000" font-family="sans-serif" font-size="14" lengthAdjust="spacing" textLength="79.9121" x="663.84" y="1035.3389">price : float</text><g data-visibility-modifier="PRIVATE_FIELD"><rect fill="none" height="6" style="stroke:#C82930;stroke-width:1;" width="6" x="651.84" y="1045.2891"/></g><text fill="#000000" font-family="sans-serif" font-size="14" lengthAdjust="spacing" textLength="160.3232" x="663.84" y="1051.6357">fish_required_kg : float</text><line style="stroke:#181818;stroke-width:0.5;" x1="644.84" x2="829.1632" y1="1058.9375" y2="1058.9375"/></g><!--class OrderItem--><g class="entity" data-qualified-name="Domain Layer.OrderItem" data-source-line="48" id="ent0008"><rect fill="#F1F1F1" height="113.1875" rx="2.5" ry="2.5" style="stroke:#181818;stroke-width:0.5;" width="197.2471" x="638.38" y="764.27"/><ellipse cx="696.8033" cy="780.27" fill="#ADD1B2" rx="11" ry="11" style="stroke:#181818;stroke-width:1;"/><path d="M699.7721,785.9106 Q699.194,786.2075 698.5533,786.3481 Q697.9127,786.5044 697.2096,786.5044 Q694.7096,786.5044 693.3815,784.8638 Q692.069,783.2075 692.069,780.0825 Q692.069,776.9575 693.3815,775.3013 Q694.7096,773.645 697.2096,773.645 Q697.9127,773.645 698.5533,773.8013 Q699.2096,773.9575 699.7721,774.2544 L699.7721,776.9731 Q699.1471,776.395 698.5533,776.1294 Q697.9596,775.8481 697.3346,775.8481 Q695.9908,775.8481 695.3033,776.9263 Q694.6158,777.9888 694.6158,780.0825 Q694.6158,782.1763 695.3033,783.2544 Q695.9908,784.3169 697.3346,784.3169 Q697.9596,784.3169 698.5533,784.0513 Q699.1471,783.77 699.7721,783.1919 L699.7721,785.9106 Z " fill="#000000"/><text fill="#000000" font-family="sans-serif" font-size="14" lengthAdjust="spacing" textLength="71.9004" x="717.3033" y="785.1167">OrderItem</text><line style="stroke:#181818;stroke-width:0.5;" x1="639.38" x2="834.6271" y1="796.27" y2="796.27"/><g data-visibility-modifier="PRIVATE_FIELD"><rect fill="none" height="6" style="stroke:#C82930;stroke-width:1;" width="6" x="646.38" y="806.9184"/></g><text fill="#000000" font-family="sans-serif" font-size="14" lengthAdjust="spacing" textLength="162.5518" x="658.38" y="813.2651">menu_item : MenuItem</text><g data-visibility-modifier="PRIVATE_FIELD"><rect fill="none" height="6" style="stroke:#C82930;stroke-width:1;" width="6" x="646.38" y="823.2153"/></g><text fill="#000000" font-family="sans-serif" font-size="14" lengthAdjust="spacing" textLength="90.2344" x="658.38" y="829.562">quantity : int</text><line style="stroke:#181818;stroke-width:0.5;" x1="639.38" x2="834.6271" y1="836.8638" y2="836.8638"/><g data-visibility-modifier="PUBLIC_METHOD"><ellipse cx="649.38" cy="850.5122" fill="#84BE84" rx="3" ry="3" style="stroke:#038048;stroke-width:1;"/></g><text fill="#000000" font-family="sans-serif" font-size="14" lengthAdjust="spacing" textLength="129.8486" x="658.38" y="853.8589">total_price() : float</text><g data-visibility-modifier="PUBLIC_METHOD"><ellipse cx="649.38" cy="866.8091" fill="#84BE84" rx="3" ry="3" style="stroke:#038048;stroke-width:1;"/></g><text fill="#000000" font-family="sans-serif" font-size="14" lengthAdjust="spacing" textLength="171.2471" x="658.38" y="870.1557">required_fish_kg() : float</text></g><!--class Order--><g class="entity" data-qualified-name="Domain Layer.Order" data-source-line="55" id="ent0009"><rect fill="#F1F1F1" height="113.1875" rx="2.5" ry="2.5" style="stroke:#181818;stroke-width:0.5;" width="257.8477" x="608.08" y="542.19"/><ellipse cx="712.7382" cy="558.19" fill="#ADD1B2" rx="11" ry="11" style="stroke:#181818;stroke-width:1;"/><path d="M715.707,563.8306 Q715.1288,564.1275 714.4882,564.2681 Q713.8476,564.4244 713.1445,564.4244 Q710.6445,564.4244 709.3163,562.7838 Q708.0038,561.1275 708.0038,558.0025 Q708.0038,554.8775 709.3163,553.2213 Q710.6445,551.565 713.1445,551.565 Q713.8476,551.565 714.4882,551.7213 Q715.1445,551.8775 715.707,552.1744 L715.707,554.8931 Q715.082,554.315 714.4882,554.0494 Q713.8945,553.7681 713.2695,553.7681 Q711.9257,553.7681 711.2382,554.8463 Q710.5507,555.9088 710.5507,558.0025 Q710.5507,560.0963 711.2382,561.1744 Q711.9257,562.2369 713.2695,562.2369 Q713.8945,562.2369 714.4882,561.9713 Q715.082,561.69 715.707,561.1119 L715.707,563.8306 Z " fill="#000000"/><text fill="#000000" font-family="sans-serif" font-size="14" lengthAdjust="spacing" textLength="40.0313" x="733.2382" y="563.0367">Order</text><line style="stroke:#181818;stroke-width:0.5;" x1="609.08" x2="864.9277" y1="574.19" y2="574.19"/><g data-visibility-modifier="PRIVATE_FIELD"><rect fill="none" height="6" style="stroke:#C82930;stroke-width:1;" width="6" x="616.08" y="584.8384"/></g><text fill="#000000" font-family="sans-serif" font-size="14" lengthAdjust="spacing" textLength="89.2227" x="628.08" y="591.1851">order_id : int</text><g data-visibility-modifier="PRIVATE_FIELD"><rect fill="none" height="6" style="stroke:#C82930;stroke-width:1;" width="6" x="616.08" y="601.1353"/></g><text fill="#000000" font-family="sans-serif" font-size="14" lengthAdjust="spacing" textLength="172.375" x="628.08" y="607.482">items : List&lt;OrderItem&gt;</text><line style="stroke:#181818;stroke-width:0.5;" x1="609.08" x2="864.9277" y1="614.7838" y2="614.7838"/><g data-visibility-modifier="PUBLIC_METHOD"><ellipse cx="619.08" cy="628.4322" fill="#84BE84" rx="3" ry="3" style="stroke:#038048;stroke-width:1;"/></g><text fill="#000000" font-family="sans-serif" font-size="14" lengthAdjust="spacing" textLength="231.8477" x="628.08" y="631.7789">add_item(item: OrderItem) : void</text><g data-visibility-modifier="PUBLIC_METHOD"><ellipse cx="619.08" cy="644.7291" fill="#84BE84" rx="3" ry="3" style="stroke:#038048;stroke-width:1;"/></g><text fill="#000000" font-family="sans-serif" font-size="14" lengthAdjust="spacing" textLength="149.0234" x="628.08" y="648.0757">total_amount() : float</text></g><!--class Bill--><g class="entity" data-qualified-name="Domain Layer.Bill" data-source-line="62" id="ent0010"><rect fill="#F1F1F1" height="96.8906" rx="2.5" ry="2.5" style="stroke:#181818;stroke-width:0.5;" width="180.0615" x="607.97" y="295.67"/><ellipse cx="683.114" cy="311.67" fill="#ADD1B2" rx="11" ry="11" style="stroke:#181818;stroke-width:1;"/><path d="M686.0828,317.3106 Q685.5047,317.6075 684.864,317.7481 Q684.2234,317.9044 683.5203,317.9044 Q681.0203,317.9044 679.6922,316.2638 Q678.3797,314.6075 678.3797,311.4825 Q678.3797,308.3575 679.6922,306.7013 Q681.0203,305.045 683.5203,305.045 Q684.2234,305.045 684.864,305.2013 Q685.5203,305.3575 686.0828,305.6544 L686.0828,308.3731 Q685.4578,307.795 684.864,307.5294 Q684.2703,307.2481 683.6453,307.2481 Q682.3015,307.2481 681.614,308.3263 Q680.9265,309.3888 680.9265,311.4825 Q680.9265,313.5763 681.614,314.6544 Q682.3015,315.7169 683.6453,315.7169 Q684.2703,315.7169 684.864,315.4513 Q685.4578,315.17 686.0828,314.5919 L686.0828,317.3106 Z " fill="#000000"/><text fill="#000000" font-family="sans-serif" font-size="14" lengthAdjust="spacing" textLength="21.2734" x="703.614" y="316.5167">Bill</text><line style="stroke:#181818;stroke-width:0.5;" x1="608.97" x2="787.0315" y1="327.67" y2="327.67"/><g data-visibility-modifier="PRIVATE_FIELD"><rect fill="none" height="6" style="stroke:#C82930;stroke-width:1;" width="6" x="615.97" y="338.3184"/></g><text fill="#000000" font-family="sans-serif" font-size="14" lengthAdjust="spacing" textLength="91.2256" x="627.97" y="344.6651">order : Order</text><g data-visibility-modifier="PRIVATE_FIELD"><rect fill="none" height="6" style="stroke:#C82930;stroke-width:1;" width="6" x="615.97" y="354.6153"/></g><text fill="#000000" font-family="sans-serif" font-size="14" lengthAdjust="spacing" textLength="102.8604" x="627.97" y="360.962">tax_rate : float</text><line style="stroke:#181818;stroke-width:0.5;" x1="608.97" x2="787.0315" y1="368.2638" y2="368.2638"/><g data-visibility-modifier="PUBLIC_METHOD"><ellipse cx="618.97" cy="381.9122" fill="#84BE84" rx="3" ry="3" style="stroke:#038048;stroke-width:1;"/></g><text fill="#000000" font-family="sans-serif" font-size="14" lengthAdjust="spacing" textLength="154.0615" x="627.97" y="385.2589">total_with_tax() : float</text></g><!--class Restaurant--><g class="entity" data-qualified-name="Domain Layer.Restaurant" data-source-line="68" id="ent0011"><rect fill="#F1F1F1" height="194.6719" rx="2.5" ry="2.5" style="stroke:#181818;stroke-width:0.5;" width="321.1826" x="823.41" y="246.78"/><ellipse cx="941.1146" cy="262.78" fill="#ADD1B2" rx="11" ry="11" style="stroke:#181818;stroke-width:1;"/><path d="M944.0833,268.4206 Q943.5052,268.7175 942.8646,268.8581 Q942.224,269.0144 941.5208,269.0144 Q939.0208,269.0144 937.6927,267.3738 Q936.3802,265.7175 936.3802,262.5925 Q936.3802,259.4675 937.6927,257.8113 Q939.0208,256.155 941.5208,256.155 Q942.224,256.155 942.8646,256.3113 Q943.5208,256.4675 944.0833,256.7644 L944.0833,259.4831 Q943.4583,258.905 942.8646,258.6394 Q942.2708,258.3581 941.6458,258.3581 Q940.3021,258.3581 939.6146,259.4363 Q938.9271,260.4988 938.9271,262.5925 Q938.9271,264.6863 939.6146,265.7644 Q940.3021,266.8269 941.6458,266.8269 Q942.2708,266.8269 942.8646,266.5613 Q943.4583,266.28 944.0833,265.7019 L944.0833,268.4206 Z " fill="#000000"/><text fill="#000000" font-family="sans-serif" font-size="14" lengthAdjust="spacing" textLength="77.2734" x="961.6146" y="267.6267">Restaurant</text><line style="stroke:#181818;stroke-width:0.5;" x1="824.41" x2="1143.5926" y1="278.78" y2="278.78"/><g data-visibility-modifier="PRIVATE_FIELD"><rect fill="none" height="6" style="stroke:#C82930;stroke-width:1;" width="6" x="831.41" y="289.4284"/></g><text fill="#000000" font-family="sans-serif" font-size="14" lengthAdjust="spacing" textLength="71.8594" x="843.41" y="295.7751">name : str</text><g data-visibility-modifier="PRIVATE_FIELD"><rect fill="none" height="6" style="stroke:#C82930;stroke-width:1;" width="6" x="831.41" y="305.7253"/></g><text fill="#000000" font-family="sans-serif" font-size="14" lengthAdjust="spacing" textLength="226.9189" x="843.41" y="312.072">inventory : List&lt;InventoryItem&gt;</text><g data-visibility-modifier="PRIVATE_FIELD"><rect fill="none" height="6" style="stroke:#C82930;stroke-width:1;" width="6" x="831.41" y="322.0222"/></g><text fill="#000000" font-family="sans-serif" font-size="14" lengthAdjust="spacing" textLength="146.4531" x="843.41" y="328.3689">orders : List&lt;Order&gt;</text><g data-visibility-modifier="PRIVATE_FIELD"><rect fill="none" height="6" style="stroke:#C82930;stroke-width:1;" width="6" x="831.41" y="338.3191"/></g><text fill="#000000" font-family="sans-serif" font-size="14" lengthAdjust="spacing" textLength="182.6152" x="843.41" y="344.6657">suppliers : List&lt;Supplier&gt;</text><g data-visibility-modifier="PRIVATE_FIELD"><rect fill="none" height="6" style="stroke:#C82930;stroke-width:1;" width="6" x="831.41" y="354.6159"/></g><text fill="#000000" font-family="sans-serif" font-size="14" lengthAdjust="spacing" textLength="187.3936" x="843.41" y="360.9626">deliveries : List&lt;Delivery&gt;</text><line style="stroke:#181818;stroke-width:0.5;" x1="824.41" x2="1143.5926" y1="368.2644" y2="368.2644"/><g data-visibility-modifier="PUBLIC_METHOD"><ellipse cx="834.41" cy="381.9128" fill="#84BE84" rx="3" ry="3" style="stroke:#038048;stroke-width:1;"/></g><text fill="#000000" font-family="sans-serif" font-size="14" lengthAdjust="spacing" textLength="293.6855" x="843.41" y="385.2595">add_inventory(item: InventoryItem) : void</text><g data-visibility-modifier="PUBLIC_METHOD"><ellipse cx="834.41" cy="398.2097" fill="#84BE84" rx="3" ry="3" style="stroke:#038048;stroke-width:1;"/></g><text fill="#000000" font-family="sans-serif" font-size="14" lengthAdjust="spacing" textLength="223.1865" x="843.41" y="401.5564">place_order(order: Order) : void</text><g data-visibility-modifier="PUBLIC_METHOD"><ellipse cx="834.41" cy="414.5066" fill="#84BE84" rx="3" ry="3" style="stroke:#038048;stroke-width:1;"/></g><text fill="#000000" font-family="sans-serif" font-size="14" lengthAdjust="spacing" textLength="266.5469" x="843.41" y="417.8532">add_supplier(supplier: Supplier) : void</text><g data-visibility-modifier="PUBLIC_METHOD"><ellipse cx="834.41" cy="430.8034" fill="#84BE84" rx="3" ry="3" style="stroke:#038048;stroke-width:1;"/></g><text fill="#000000" font-family="sans-serif" font-size="14" lengthAdjust="spacing" textLength="295.1826" x="843.41" y="434.1501">register_delivery(delivery: Delivery) : void</text></g><!--class DemandModel--><g class="entity" data-qualified-name="Analytics Layer.DemandModel" data-source-line="88" id="ent0013"><rect fill="#F1F1F1" height="145.7813" rx="2.5" ry="2.5" style="stroke:#181818;stroke-width:0.5;" width="290.8926" x="21.55" y="271.22"/><ellipse cx="112.0441" cy="287.22" fill="#ADD1B2" rx="11" ry="11" style="stroke:#181818;stroke-width:1;"/><path d="M115.0129,292.8606 Q114.4348,293.1575 113.7941,293.2981 Q113.1535,293.4544 112.4504,293.4544 Q109.9504,293.4544 108.6223,291.8138 Q107.3098,290.1575 107.3098,287.0325 Q107.3098,283.9075 108.6223,282.2513 Q109.9504,280.595 112.4504,280.595 Q113.1535,280.595 113.7941,280.7513 Q114.4504,280.9075 115.0129,281.2044 L115.0129,283.9231 Q114.3879,283.345 113.7941,283.0794 Q113.2004,282.7981 112.5754,282.7981 Q111.2316,282.7981 110.5441,283.8763 Q109.8566,284.9388 109.8566,287.0325 Q109.8566,289.1263 110.5441,290.2044 Q111.2316,291.2669 112.5754,291.2669 Q113.2004,291.2669 113.7941,291.0013 Q114.3879,290.72 115.0129,290.1419 L115.0129,292.8606 Z " fill="#000000"/><text fill="#000000" font-family="sans-serif" font-size="14" lengthAdjust="spacing" textLength="101.4043" x="132.5441" y="292.0667">DemandModel</text><line style="stroke:#181818;stroke-width:0.5;" x1="22.55" x2="311.4426" y1="303.22" y2="303.22"/><g data-visibility-modifier="PRIVATE_FIELD"><rect fill="none" height="6" style="stroke:#C82930;stroke-width:1;" width="6" x="29.55" y="313.8684"/></g><text fill="#000000" font-family="sans-serif" font-size="14" lengthAdjust="spacing" textLength="196.7314" x="41.55" y="320.2151">historical_demand : ndarray</text><g data-visibility-modifier="PRIVATE_FIELD"><rect fill="none" height="6" style="stroke:#C82930;stroke-width:1;" width="6" x="29.55" y="330.1653"/></g><text fill="#000000" font-family="sans-serif" font-size="14" lengthAdjust="spacing" textLength="126.2188" x="41.55" y="336.512">model : pm.Model</text><g data-visibility-modifier="PRIVATE_FIELD"><rect fill="none" height="6" style="stroke:#C82930;stroke-width:1;" width="6" x="29.55" y="346.4622"/></g><text fill="#000000" font-family="sans-serif" font-size="14" lengthAdjust="spacing" textLength="149.2764" x="41.55" y="352.8089">trace : InferenceData</text><line style="stroke:#181818;stroke-width:0.5;" x1="22.55" x2="311.4426" y1="360.1106" y2="360.1106"/><g data-visibility-modifier="PUBLIC_METHOD"><ellipse cx="32.55" cy="373.7591" fill="#84BE84" rx="3" ry="3" style="stroke:#038048;stroke-width:1;"/></g><text fill="#000000" font-family="sans-serif" font-size="14" lengthAdjust="spacing" textLength="139.1865" x="41.55" y="377.1057">build_model() : void</text><g data-visibility-modifier="PUBLIC_METHOD"><ellipse cx="32.55" cy="390.0559" fill="#84BE84" rx="3" ry="3" style="stroke:#038048;stroke-width:1;"/></g><text fill="#000000" font-family="sans-serif" font-size="14" lengthAdjust="spacing" textLength="264.8926" x="41.55" y="393.4026">run_mcmc(draws: int, tune: int) : void</text><g data-visibility-modifier="PUBLIC_METHOD"><ellipse cx="32.55" cy="406.3528" fill="#84BE84" rx="3" ry="3" style="stroke:#038048;stroke-width:1;"/></g><text fill="#000000" font-family="sans-serif" font-size="14" lengthAdjust="spacing" textLength="163.0234" x="41.55" y="409.6995">predict_next_day() : int</text></g><!--class SupplierReliabilityModel--><g class="entity" data-qualified-name="Analytics Layer.SupplierReliabilityModel" data-source-line="97" id="ent0014"><rect fill="#F1F1F1" height="145.7813" rx="2.5" ry="2.5" style="stroke:#181818;stroke-width:0.5;" width="204.7598" x="347.62" y="271.22"/><ellipse cx="364.4266" cy="287.22" fill="#ADD1B2" rx="11" ry="11" style="stroke:#181818;stroke-width:1;"/><path d="M367.3953,292.8606 Q366.8172,293.1575 366.1766,293.2981 Q365.536,293.4544 364.8328,293.4544 Q362.3328,293.4544 361.0047,291.8138 Q359.6922,290.1575 359.6922,287.0325 Q359.6922,283.9075 361.0047,282.2513 Q362.3328,280.595 364.8328,280.595 Q365.536,280.595 366.1766,280.7513 Q366.8328,280.9075 367.3953,281.2044 L367.3953,283.9231 Q366.7703,283.345 366.1766,283.0794 Q365.5828,282.7981 364.9578,282.7981 Q363.6141,282.7981 362.9266,283.8763 Q362.2391,284.9388 362.2391,287.0325 Q362.2391,289.1263 362.9266,290.2044 Q363.6141,291.2669 364.9578,291.2669 Q365.5828,291.2669 366.1766,291.0013 Q366.7703,290.72 367.3953,290.1419 L367.3953,292.8606 Z " fill="#000000"/><text fill="#000000" font-family="sans-serif" font-size="14" lengthAdjust="spacing" textLength="168.7451" x="378.8281" y="292.0667">SupplierReliabilityModel</text><line style="stroke:#181818;stroke-width:0.5;" x1="348.62" x2="551.3798" y1="303.22" y2="303.22"/><g data-visibility-modifier="PRIVATE_FIELD"><rect fill="none" height="6" style="stroke:#C82930;stroke-width:1;" width="6" x="355.62" y="313.8684"/></g><text fill="#000000" font-family="sans-serif" font-size="14" lengthAdjust="spacing" textLength="178.7598" x="367.62" y="320.2151">delivery_results : ndarray</text><g data-visibility-modifier="PRIVATE_FIELD"><rect fill="none" height="6" style="stroke:#C82930;stroke-width:1;" width="6" x="355.62" y="330.1653"/></g><text fill="#000000" font-family="sans-serif" font-size="14" lengthAdjust="spacing" textLength="126.2188" x="367.62" y="336.512">model : pm.Model</text><g data-visibility-modifier="PRIVATE_FIELD"><rect fill="none" height="6" style="stroke:#C82930;stroke-width:1;" width="6" x="355.62" y="346.4622"/></g><text fill="#000000" font-family="sans-serif" font-size="14" lengthAdjust="spacing" textLength="149.2764" x="367.62" y="352.8089">trace : InferenceData</text><line style="stroke:#181818;stroke-width:0.5;" x1="348.62" x2="551.3798" y1="360.1106" y2="360.1106"/><g data-visibility-modifier="PUBLIC_METHOD"><ellipse cx="358.62" cy="373.7591" fill="#84BE84" rx="3" ry="3" style="stroke:#038048;stroke-width:1;"/></g><text fill="#000000" font-family="sans-serif" font-size="14" lengthAdjust="spacing" textLength="139.1865" x="367.62" y="377.1057">build_model() : void</text><g data-visibility-modifier="PUBLIC_METHOD"><ellipse cx="358.62" cy="390.0559" fill="#84BE84" rx="3" ry="3" style="stroke:#038048;stroke-width:1;"/></g><text fill="#000000" font-family="sans-serif" font-size="14" lengthAdjust="spacing" textLength="127.3398" x="367.62" y="393.4026">run_mcmc() : void</text><g data-visibility-modifier="PUBLIC_METHOD"><ellipse cx="358.62" cy="406.3528" fill="#84BE84" rx="3" ry="3" style="stroke:#038048;stroke-width:1;"/></g><text fill="#000000" font-family="sans-serif" font-size="14" lengthAdjust="spacing" textLength="165.5117" x="367.62" y="409.6995">posterior_mean() : float</text></g><!--class RestaurantAnalytics--><g class="entity" data-qualified-name="Analytics Layer.RestaurantAnalytics" data-source-line="106" id="ent0015"><rect fill="#F1F1F1" height="145.7813" rx="2.5" ry="2.5" style="stroke:#181818;stroke-width:0.5;" width="315.0439" x="236.48" y="41"/><ellipse cx="319.3281" cy="57" fill="#ADD1B2" rx="11" ry="11" style="stroke:#181818;stroke-width:1;"/><path d="M322.2969,62.6406 Q321.7188,62.9375 321.0781,63.0781 Q320.4375,63.2344 319.7344,63.2344 Q317.2344,63.2344 315.9063,61.5938 Q314.5938,59.9375 314.5938,56.8125 Q314.5938,53.6875 315.9063,52.0313 Q317.2344,50.375 319.7344,50.375 Q320.4375,50.375 321.0781,50.5313 Q321.7344,50.6875 322.2969,50.9844 L322.2969,53.7031 Q321.6719,53.125 321.0781,52.8594 Q320.4844,52.5781 319.8594,52.5781 Q318.5156,52.5781 317.8281,53.6563 Q317.1406,54.7188 317.1406,56.8125 Q317.1406,58.9063 317.8281,59.9844 Q318.5156,61.0469 319.8594,61.0469 Q320.4844,61.0469 321.0781,60.7813 Q321.6719,60.5 322.2969,59.9219 L322.2969,62.6406 Z " fill="#000000"/><text fill="#000000" font-family="sans-serif" font-size="14" lengthAdjust="spacing" textLength="140.8477" x="339.8281" y="61.8467">RestaurantAnalytics</text><line style="stroke:#181818;stroke-width:0.5;" x1="237.48" x2="550.5239" y1="73" y2="73"/><g data-visibility-modifier="PRIVATE_FIELD"><rect fill="none" height="6" style="stroke:#C82930;stroke-width:1;" width="6" x="244.48" y="83.6484"/></g><text fill="#000000" font-family="sans-serif" font-size="14" lengthAdjust="spacing" textLength="164.1924" x="256.48" y="89.9951">restaurant : Restaurant</text><g data-visibility-modifier="PRIVATE_FIELD"><rect fill="none" height="6" style="stroke:#C82930;stroke-width:1;" width="6" x="244.48" y="99.9453"/></g><text fill="#000000" font-family="sans-serif" font-size="14" lengthAdjust="spacing" textLength="223.0908" x="256.48" y="106.292">demand_model : DemandModel</text><g data-visibility-modifier="PRIVATE_FIELD"><rect fill="none" height="6" style="stroke:#C82930;stroke-width:1;" width="6" x="244.48" y="116.2422"/></g><text fill="#000000" font-family="sans-serif" font-size="14" lengthAdjust="spacing" textLength="289.0439" x="256.48" y="122.5889">supplier_model : SupplierReliabilityModel</text><line style="stroke:#181818;stroke-width:0.5;" x1="237.48" x2="550.5239" y1="129.8906" y2="129.8906"/><g data-visibility-modifier="PUBLIC_METHOD"><ellipse cx="247.48" cy="143.5391" fill="#84BE84" rx="3" ry="3" style="stroke:#038048;stroke-width:1;"/></g><text fill="#000000" font-family="sans-serif" font-size="14" lengthAdjust="spacing" textLength="171.9033" x="256.48" y="146.8857">forecast_demand() : dict</text><g data-visibility-modifier="PUBLIC_METHOD"><ellipse cx="247.48" cy="159.8359" fill="#84BE84" rx="3" ry="3" style="stroke:#038048;stroke-width:1;"/></g><text fill="#000000" font-family="sans-serif" font-size="14" lengthAdjust="spacing" textLength="206.5615" x="256.48" y="163.1826">evaluate_supplier_risk() : dict</text><g data-visibility-modifier="PUBLIC_METHOD"><ellipse cx="247.48" cy="176.1328" fill="#84BE84" rx="3" ry="3" style="stroke:#038048;stroke-width:1;"/></g><text fill="#000000" font-family="sans-serif" font-size="14" lengthAdjust="spacing" textLength="266.8408" x="256.48" y="179.4795">compute_stockout_probability() : float</text></g><!--link Supplier to Delivery--><g class="link" data-entity-1="ent0004" data-entity-2="ent0006" data-link-type="association" data-source-line="121" id="lnk16"><path codeLine="121" d="M1096.28,696.31 C1093.63,716.41 1090.9,737.12 1088.46,755.7" fill="none" id="Supplier-Delivery" style="stroke:#181818;stroke-width:1;"/><text fill="#000000" font-family="sans-serif" font-size="13" lengthAdjust="spacing" textLength="8.271" x="1087.0621" y="716.0945">1</text><text fill="#000000" font-family="sans-serif" font-size="13" lengthAdjust="spacing" textLength="23.0356" x="1065.1481" y="745.2805">0..*</text></g><!--reverse link Delivery to InventoryItem--><g class="link" data-entity-1="ent0006" data-entity-2="ent0005" data-link-type="composition" data-source-line="122" id="lnk17"><path codeLine="122" d="M1050.3335,897.0217 C1042.7535,916.2217 1038.85,926.12 1031.27,945.32" fill="none" id="Delivery-backto-InventoryItem" style="stroke:#181818;stroke-width:1;"/><polygon fill="#181818" points="1054.74,885.86,1048.8162,889.972,1050.3335,897.0217,1056.2573,892.9097,1054.74,885.86" style="stroke:#181818;stroke-width:1;"/><text fill="#000000" font-family="sans-serif" font-size="13" lengthAdjust="spacing" textLength="8.271" x="1043.5542" y="905.8636">1</text><text fill="#000000" font-family="sans-serif" font-size="13" lengthAdjust="spacing" textLength="23.0356" x="1009.7778" y="934.4609">1..*</text></g><!--link InventoryItem to Fish--><g class="link" data-entity-1="ent0005" data-entity-2="ent0003" data-link-type="association" data-source-line="123" id="lnk18"><path codeLine="123" d="M955.35,1075.58 C939.86,1095.22 923.11,1116.46 908.65,1134.8" fill="none" id="InventoryItem-Fish" style="stroke:#181818;stroke-width:1;"/><text fill="#000000" font-family="sans-serif" font-size="13" lengthAdjust="spacing" textLength="8.271" x="941.728" y="1095.1538">1</text><text fill="#000000" font-family="sans-serif" font-size="13" lengthAdjust="spacing" textLength="8.271" x="905.4015" y="1123.9681">1</text></g><!--link MenuItem to Fish--><g class="link" data-entity-1="ent0007" data-entity-2="ent0003" data-link-type="association" data-source-line="124" id="lnk19"><path codeLine="124" d="M780.88,1067.4 C797.9,1089.15 817.19,1113.79 833.54,1134.68" fill="none" id="MenuItem-Fish" style="stroke:#181818;stroke-width:1;"/><text fill="#000000" font-family="sans-serif" font-size="13" lengthAdjust="spacing" textLength="8.271" x="777.5066" y="1086.9389">1</text><text fill="#000000" font-family="sans-serif" font-size="13" lengthAdjust="spacing" textLength="8.271" x="819.9875" y="1124.1831">1</text></g><!--reverse link Order to OrderItem--><g class="link" data-entity-1="ent0009" data-entity-2="ent0008" data-link-type="composition" data-source-line="125" id="lnk20"><path codeLine="125" d="M737,667.6 C737,700.84 737,730.88 737,764.1" fill="none" id="Order-backto-OrderItem" style="stroke:#181818;stroke-width:1;"/><polygon fill="#181818" points="737,655.6,733,661.6,737,667.6,741,661.6,737,655.6" style="stroke:#181818;stroke-width:1;"/><text fill="#000000" font-family="sans-serif" font-size="13" lengthAdjust="spacing" textLength="8.271" x="728.5285" y="675.5135">1</text><text fill="#000000" font-family="sans-serif" font-size="13" lengthAdjust="spacing" textLength="23.0356" x="712.6002" y="753.3428">1..*</text></g><!--link OrderItem to MenuItem--><g class="link" data-entity-1="ent0008" data-entity-2="ent0007" data-link-type="association" data-source-line="126" id="lnk21"><path codeLine="126" d="M737,877.86 C737,901.71 737,929.46 737,953.31" fill="none" id="OrderItem-MenuItem" style="stroke:#181818;stroke-width:1;"/><text fill="#000000" font-family="sans-serif" font-size="13" lengthAdjust="spacing" textLength="8.271" x="728.5528" y="897.392">1</text><text fill="#000000" font-family="sans-serif" font-size="13" lengthAdjust="spacing" textLength="8.271" x="728.5288" y="942.5199">1</text></g><!--link Bill to Order--><g class="link" data-entity-1="ent0010" data-entity-2="ent0009" data-link-type="association" data-source-line="127" id="lnk22"><path codeLine="127" d="M705.38,392.94 C711.92,435.28 721.46,497.13 728.36,541.78" fill="none" id="Bill-Order" style="stroke:#181818;stroke-width:1;"/><text fill="#000000" font-family="sans-serif" font-size="13" lengthAdjust="spacing" textLength="8.271" x="697.8523" y="412.5844">1</text><text fill="#000000" font-family="sans-serif" font-size="13" lengthAdjust="spacing" textLength="8.271" x="718.8355" y="530.9936">1</text></g><!--link Restaurant to InventoryItem--><g class="link" data-entity-1="ent0011" data-entity-2="ent0005" data-link-type="association" data-source-line="129" id="lnk23"><path codeLine="129" d="M944.87,441.85 C938.46,461.3 932.71,481.8 929,501.45 C897.28,669.26 868.93,722.64 920,885.61 C926.57,906.58 938.09,927.11 950.6,945.23" fill="none" id="Restaurant-InventoryItem" style="stroke:#181818;stroke-width:1;"/><text fill="#000000" font-family="sans-serif" font-size="13" lengthAdjust="spacing" textLength="8.271" x="933.7125" y="461.6499">1</text><text fill="#000000" font-family="sans-serif" font-size="13" lengthAdjust="spacing" textLength="23.0356" x="920.2846" y="934.3611">0..*</text></g><!--link Restaurant to Order--><g class="link" data-entity-1="ent0011" data-entity-2="ent0009" data-link-type="association" data-source-line="130" id="lnk24"><path codeLine="130" d="M889.56,441.72 C856.47,475.57 820.42,512.45 791.68,541.85" fill="none" id="Restaurant-Order" style="stroke:#181818;stroke-width:1;"/><text fill="#000000" font-family="sans-serif" font-size="13" lengthAdjust="spacing" textLength="8.271" x="874.3407" y="461.5104">1</text><text fill="#000000" font-family="sans-serif" font-size="13" lengthAdjust="spacing" textLength="23.0356" x="773.9443" y="531.0721">0..*</text></g><!--link Restaurant to Supplier--><g class="link" data-entity-1="ent0011" data-entity-2="ent0004" data-link-type="association" data-source-line="131" id="lnk25"><path codeLine="131" d="M1031.79,441.72 C1041.44,461.22 1051.59,481.73 1061.23,501.23" fill="none" id="Restaurant-Supplier" style="stroke:#181818;stroke-width:1;"/><text fill="#000000" font-family="sans-serif" font-size="13" lengthAdjust="spacing" textLength="8.271" x="1027.0157" y="461.5104">1</text><text fill="#000000" font-family="sans-serif" font-size="13" lengthAdjust="spacing" textLength="23.0356" x="1033.6935" y="490.2586">0..*</text></g><!--link Restaurant to Delivery--><g class="link" data-entity-1="ent0011" data-entity-2="ent0006" data-link-type="association" data-source-line="132" id="lnk26"><path codeLine="132" d="M954.08,441.89 C936.93,514.52 924.73,614.99 958,696.12 C967.04,718.17 982.12,738.4 998.65,755.82" fill="none" id="Restaurant-Delivery" style="stroke:#181818;stroke-width:1;"/><text fill="#000000" font-family="sans-serif" font-size="13" lengthAdjust="spacing" textLength="8.271" x="943.7044" y="461.3636">1</text><text fill="#000000" font-family="sans-serif" font-size="13" lengthAdjust="spacing" textLength="23.0356" x="965.4962" y="744.9599">0..*</text></g><!--link RestaurantAnalytics to Restaurant--><g class="link" data-entity-1="ent0015" data-entity-2="ent0011" data-link-type="association" data-source-line="134" id="lnk27"><path codeLine="134" d="M551.97,131.94 C631,144.65 726.49,166.51 806,203.78 C830.16,215.1 854.05,230.24 876.1,246.37" fill="none" id="RestaurantAnalytics-Restaurant" style="stroke:#181818;stroke-width:1;"/><text fill="#000000" font-family="sans-serif" font-size="13" lengthAdjust="spacing" textLength="8.271" x="559.3153" y="129.4879">1</text><text fill="#000000" font-family="sans-serif" font-size="13" lengthAdjust="spacing" textLength="8.271" x="859.8922" y="235.7128">1</text></g><!--reverse link RestaurantAnalytics to DemandModel--><g class="link" data-entity-1="ent0015" data-entity-2="ent0013" data-link-type="composition" data-source-line="135" id="lnk28"><path codeLine="135" d="M313.717,195.6075 C287.087,222.3775 265.37,244.21 238.75,270.98" fill="none" id="RestaurantAnalytics-backto-DemandModel" style="stroke:#181818;stroke-width:1;"/><polygon fill="#181818" points="322.18,187.1,315.1127,188.5327,313.717,195.6075,320.7843,194.1748,322.18,187.1" style="stroke:#181818;stroke-width:1;"/><text fill="#000000" font-family="sans-serif" font-size="13" lengthAdjust="spacing" textLength="8.271" x="306.9661" y="206.8658">1</text><text fill="#000000" font-family="sans-serif" font-size="13" lengthAdjust="spacing" textLength="8.271" x="237.4328" y="260.1164">1</text></g><!--reverse link RestaurantAnalytics to SupplierReliabilityModel--><g class="link" data-entity-1="ent0015" data-entity-2="ent0014" data-link-type="composition" data-source-line="136" id="lnk29"><path codeLine="136" d="M414.5802,198.7541 C421.1502,225.5241 425.73,244.21 432.3,270.98" fill="none" id="RestaurantAnalytics-backto-SupplierReliabilityModel" style="stroke:#181818;stroke-width:1;"/><polygon fill="#181818" points="411.72,187.1,409.2654,193.8805,414.5802,198.7541,417.0348,191.9737,411.72,187.1" style="stroke:#181818;stroke-width:1;"/><text fill="#000000" font-family="sans-serif" font-size="13" lengthAdjust="spacing" textLength="8.271" x="405.0404" y="206.8658">1</text><text fill="#000000" font-family="sans-serif" font-size="13" lengthAdjust="spacing" textLength="8.271" x="422.1773" y="260.1164">1</text></g><?plantuml-src jLPDRziu4BthLn2-H9jjWlPgT0rurrtKW9Ciubvw8cYATWXJf4fIRenY__iEFqIJYPJsia5WIvgdcJTlXZE-Gd-C_bLNQFLmjrpVeytowwT7k9t0LHsXHt9WQBPIBU4IRSYPwHdwKLLK46FGtzmymHr2DqYIbg4vCbRxsnqn35DbBEwOniS3cFP24UkDfkywmU5vfpbb-4Gq9vAoXFbtyB-DmF4OUuWUNGXkB5XMdDgFMwkvFBmBlXOU6UCeGImNt9uBDfe9JdQldvCJqv0yRfWWPzoGiodCtthYNi5xGgtIcUbtT60syAeTnRcNwRS20Juvk3zZqrFAZDdtedQ8dLAY1FZetiPbfinQdfY4kEUrPMsKnmL38Lf8e5Mzj2_5PyyTrw23af2JTNgwBn-K6-ojhAbfhpK4y920AEW1f0T5ZLNqM8SuCOQ3dHHlBbHNCPN8SYW-u8Ro-kUNZ0jMDuX3Xaxw3TJuOv7tmdDXpupsrjV9EwWJ1MSbJOETXzfzp4lTNdEzOxBF51rfk5nWN-D2ND-IcdthdOYvyYd2WswOpaAq4D4J1EWGVUWlQKDFkigxNAooHCJEAlifXVG4ZeVCN4QEKPMxnhn9pb_8d5WknaHCraBfm2uqmrZyFxaGUNWK7VadbZnZ7Gf_oIfu_Cxj4mRxcCz7PYpfDIWrNZ4-b7koVoAPClD5qQd9DlJh8czOpf9zwFHCj27Sc-tdq9qWSA0ybzf_HdLUDVF0gXukBkUem6fs04vGvNGkXejvEfBv0O3_g-c5iRnVRhv-MV-r_VMTiPH4d2sdvjNQMB6MoEPE0Q5OjYUWgg2leToDDm8nsH2joJcS4e-TewwzzQ-5dj747x-rt3COLfIjY2K-zrtFHOFzI-KqqBt4BMrftMZotVZcVuTiBvc_B0i2nmdM2PRisOt1aHayoFvuMI1vJccWQMPwOSt_dLB9NhdQSwLnouXy--XS2lKZBiHqgEOPB2RbgeC7ybaboyq-0AOqyYJtIZDAu3T2yEfPEit3M3yHqSD4I0sFDJV74aDLsxdHx_UGwjtMLRiOfipvxUv-_BHPVba_t6y_h__Plj7RwVV8xCCCtToWsVlRs-jPEavLMdNEVkq07poWEFPLkRi7L_3b5qjQGIyDONw_y9n6SNLPBDcBQQFuuPiPmkIjilbPfbGodeG5DvFcjE0d4KcwQgmVCy9P7quXhoCqRygVOQVwypy0?></g></svg>